<svg width="680" height="260" viewBox="0 0 680 260" xmlns="http://www.w3.org/2000/svg" font-family="Arial, Helvetica, sans-serif">
<defs>
<marker id="arrow" viewBox="0 0 10 10" refX="8" refY="5" markerWidth="6" markerHeight="6" orient="auto-start-reverse">
<path d="M2 1L8 5L2 9" fill="none" stroke="#444441" stroke-width="1.5" stroke-linecap="round" stroke-linejoin="round"/>
</marker>
</defs>
<rect width="680" height="260" fill="#ffffff"/>

<rect x="20" y="30" width="120" height="56" rx="8" fill="#F1EFE8" stroke="#5F5E5A" stroke-width="0.75"/>
<text x="80" y="52" text-anchor="middle" font-size="14" font-weight="600" fill="#2C2C2A">Stock data</text>
<text x="80" y="70" text-anchor="middle" font-size="12" fill="#5F5E5A">RELIANCE, TCS CSVs</text>

<line x1="140" y1="58" x2="176" y2="58" stroke="#444441" stroke-width="1.5" marker-end="url(#arrow)"/>

<rect x="180" y="30" width="120" height="56" rx="8" fill="#E1F5EE" stroke="#0F6E56" stroke-width="0.75"/>
<text x="240" y="52" text-anchor="middle" font-size="14" font-weight="600" fill="#04342C">Preprocessing</text>
<text x="240" y="70" text-anchor="middle" font-size="12" fill="#085041">Clean, merge prices</text>

<line x1="300" y1="58" x2="336" y2="58" stroke="#444441" stroke-width="1.5" marker-end="url(#arrow)"/>

<rect x="340" y="30" width="120" height="56" rx="8" fill="#FAEEDA" stroke="#854F0B" stroke-width="0.75"/>
<text x="400" y="52" text-anchor="middle" font-size="14" font-weight="600" fill="#412402">ARIMA forecast</text>
<text x="400" y="70" text-anchor="middle" font-size="12" fill="#633806">Predicts next price</text>

<line x1="460" y1="58" x2="496" y2="58" stroke="#444441" stroke-width="1.5" marker-end="url(#arrow)"/>

<rect x="500" y="30" width="160" height="56" rx="8" fill="#EEEDFE" stroke="#534AB7" stroke-width="0.75"/>
<text x="580" y="52" text-anchor="middle" font-size="14" font-weight="600" fill="#26215C">Gymnasium env</text>
<text x="580" y="70" text-anchor="middle" font-size="12" fill="#3C3489">State includes forecast</text>

<line x1="580" y1="86" x2="580" y2="122" stroke="#444441" stroke-width="1.5" marker-end="url(#arrow)"/>

<rect x="500" y="126" width="160" height="56" rx="8" fill="#EEEDFE" stroke="#534AB7" stroke-width="0.75"/>
<text x="580" y="148" text-anchor="middle" font-size="14" font-weight="600" fill="#26215C">PPO agent</text>
<text x="580" y="166" text-anchor="middle" font-size="12" fill="#3C3489">Learns allocation policy</text>

<line x1="500" y1="154" x2="304" y2="154" stroke="#444441" stroke-width="1.5" marker-end="url(#arrow)"/>

<rect x="140" y="126" width="160" height="56" rx="8" fill="#FAECE7" stroke="#993C1D" stroke-width="0.75"/>
<text x="220" y="148" text-anchor="middle" font-size="14" font-weight="600" fill="#4A1B0C">Portfolio evaluation</text>
<text x="220" y="166" text-anchor="middle" font-size="12" fill="#712B13">Growth, Sharpe, return</text>

<line x1="220" y1="182" x2="220" y2="198" stroke="#444441" stroke-width="1.5" marker-end="url(#arrow)"/>
<line x1="140" y1="154" x2="84" y2="154" stroke="#444441" stroke-width="1.5" marker-end="url(#arrow)"/>

<rect x="20" y="126" width="100" height="56" rx="8" fill="#F1EFE8" stroke="#5F5E5A" stroke-width="0.75"/>
<text x="70" y="148" text-anchor="middle" font-size="14" font-weight="600" fill="#2C2C2A">Baseline</text>
<text x="70" y="166" text-anchor="middle" font-size="12" fill="#5F5E5A">50 / 50 equal weight</text>

<line x1="70" y1="182" x2="70" y2="198" stroke="#444441" stroke-width="1.5" marker-end="url(#arrow)"/>
<line x1="120" y1="228" x2="176" y2="228" stroke="#444441" stroke-width="1.5" marker-end="url(#arrow)"/>

<rect x="20" y="200" width="100" height="56" rx="8" fill="#FAECE7" stroke="#993C1D" stroke-width="0.75"/>
<text x="70" y="222" text-anchor="middle" font-size="14" font-weight="600" fill="#4A1B0C">Baseline curve</text>
<text x="70" y="240" text-anchor="middle" font-size="12" fill="#712B13">Fixed allocation</text>

<rect x="180" y="200" width="200" height="56" rx="8" fill="#FAECE7" stroke="#993C1D" stroke-width="0.75"/>
<text x="280" y="222" text-anchor="middle" font-size="14" font-weight="600" fill="#4A1B0C">RL vs baseline comparison</text>
<text x="280" y="240" text-anchor="middle" font-size="12" fill="#712B13">Final results chart</text>
</svg>
